<svg width="960" height="960" viewBox="0 0 960 960" fill="none" xmlns="http://www.w3.org/2000/svg">
<g clip-path="url(#clip0_435_1384)">
<path fill-rule="evenodd" clip-rule="evenodd" d="M272.685 685.825C272.685 685.825 336.121 695.5 384 690.007C391.595 689.206 399.114 687.808 406.49 685.828C408.978 685.132 411.483 684.437 414.001 683.737C431.89 678.769 450.442 673.616 468.336 666.815C495.719 656.415 521.57 642.167 541.119 618.867C558.979 597.583 555.453 571.046 548.042 550.583H548.032C543.859 539.17 538.237 528.34 531.304 518.359C530.923 517.582 530.326 516.93 529.586 516.481C527.709 515.18 523.894 513.819 516.345 514.624C510.083 515.292 492.816 522.833 474.762 530.718C460.567 536.917 445.885 543.329 435.684 546.779C432.586 547.918 429.386 548.755 426.128 549.279C425.463 549.358 424.668 549.468 423.774 549.597L423.724 549.279L437.731 453.321L437.115 453.232C421.897 438.739 400.877 433.285 400.877 433.285C400.877 433.285 409.768 416.912 404.622 409.912C402.765 407.389 389.076 402.799 371.881 398.131C355.451 393.67 335.833 389.151 320.287 386.3C306.946 383.846 296.595 382.627 293.834 383.727C284.486 387.472 286.821 408.034 286.821 408.034C286.821 408.034 135.603 386.767 109.309 524.554C97.905 584.294 127.11 622.548 163.844 646.717C211.833 678.285 272.685 685.825 272.685 685.825ZM199.56 503.053C199.054 502.396 198.112 502.274 197.456 502.779C196.8 503.285 196.677 504.227 197.183 504.883C220.517 535.182 253.081 557.062 289.953 567.215C326.824 577.367 365.998 575.241 401.553 561.157C402.324 560.852 402.701 559.981 402.396 559.21C402.091 558.44 401.219 558.063 400.449 558.368C365.499 572.212 326.992 574.302 290.749 564.322C254.506 554.342 222.497 532.836 199.56 503.053Z" fill="#FAFAFA"/>
<path d="M737.926 751.385L820.662 271.775L839.595 277.378L779.597 612.574L754.753 751.385H737.926Z" fill="#171717"/>
<path d="M780.928 307.07L701.46 710.013L469.135 668.878L468.335 666.812C495.722 656.412 521.569 642.167 541.118 618.863C558.978 597.576 555.452 571.043 548.041 550.58L584.12 537.657C584.12 537.657 588.173 557.971 594.878 558.09C600.759 558.199 602.904 554.504 602.964 549.428L603.222 549.438C609.49 554.951 616.742 560.464 619.493 559.272C623.546 557.524 613.583 534.041 608.785 523.323H608.795C610.513 525.806 612.768 527.485 615.152 525.27C623.052 517.939 612.967 506.634 607.464 501.548C602.199 496.681 596.447 491.615 588.928 492.248L587.865 492.188C587.465 492.267 587.065 492.347 586.665 492.436L586.635 492.297L553.517 445.173C553.517 445.173 543.911 433.153 537.732 437.206C526.587 444.517 536.958 457.172 536.958 457.172L564.682 498.118L565.03 499.032C552.703 503.742 540.838 509.581 529.587 516.475C527.71 515.175 523.895 513.813 516.346 514.618C505.16 515.81 458.86 538.935 435.685 546.773L460.721 376.714L780.928 307.07Z" fill="#171717"/>
<path d="M440.207 253.021C439.999 253.1 439.85 253.16 439.76 253.19C439.736 253.198 439.713 253.208 439.691 253.219C439.715 253.212 439.738 253.202 439.76 253.19C439.85 253.16 440 253.11 440.207 253.021ZM441.32 252.604C447.886 250.18 472.302 241.627 474.279 246.296C476.852 252.375 453.319 269.828 437.118 266.868C437.118 266.868 369.451 254.243 359.984 254.243C350.517 254.243 347.716 261.603 347.716 261.603L332.637 329.916C332.637 329.916 324.223 341.416 315.571 337.922C306.919 334.428 318.144 320.857 318.144 320.857C318.144 320.857 302.956 330.204 300.612 322.963C298.268 315.722 306.462 311.509 306.462 311.509C306.462 311.509 314.638 304.258 317.439 298.188C320.24 292.118 330.303 237.882 347.13 232.975C363.957 228.068 390.13 231.336 407.198 232.975C424.266 234.614 431.734 205.161 439.919 206.562C447.995 207.942 433.045 239.203 432.678 239.978C433.323 239.312 455.445 216.664 461.892 219.878C468.428 223.161 451.6 248.63 441.32 252.604Z" fill="#171717"/>
<path d="M423.728 549.278L437.735 453.32L451.135 361.525L820.662 271.775L737.926 751.385L442.721 679.159" stroke="#171717" stroke-width="3" stroke-linecap="round" stroke-linejoin="round"/>
<path d="M737.926 751.385H754.753L779.597 612.574L839.595 277.378L820.662 271.775" stroke="#171717" stroke-width="3" stroke-linecap="round" stroke-linejoin="round"/>
<path d="M163.996 646.557L163.847 646.716L40.2344 780.133L920.234 787.116L779.596 612.574" stroke="#171717" stroke-width="3" stroke-linecap="round" stroke-linejoin="round"/>
<path d="M435.688 546.776L460.72 376.714L780.927 307.07L701.459 710.013L469.134 668.878" stroke="#171717" stroke-width="3" stroke-linecap="round" stroke-linejoin="round"/>
<path d="M215.541 674.957L158.036 742.971H412.572L384.003 690.006L383.825 689.678" stroke="#171717" stroke-width="3" stroke-linecap="round" stroke-linejoin="round"/>
<path d="M320.718 383.965L332.638 329.917L347.717 261.6C347.717 261.6 350.517 254.24 359.985 254.24C369.453 254.24 437.119 266.865 437.119 266.865C437.119 266.865 415.374 352.765 412.919 359.773C410.464 366.781 404.157 366.429 404.157 366.429C404.157 366.429 389.436 365.029 384.171 366.429C378.906 367.829 371.901 398.041 371.901 398.041" stroke="#171717" stroke-width="3" stroke-linecap="round" stroke-linejoin="round"/>
<path d="M548.045 550.579C555.456 571.042 558.982 597.578 541.122 618.861C521.573 642.161 495.722 656.411 468.339 666.811C447.926 674.569 426.658 680.182 406.493 685.824C399.116 687.805 391.596 689.203 384 690.006C336.121 695.499 272.685 685.824 272.685 685.824C272.685 685.824 211.833 678.283 163.844 646.715C127.11 622.546 97.905 584.293 109.309 524.553C135.603 386.766 286.821 408.033 286.821 408.033C286.821 408.033 284.486 387.471 293.834 383.726C296.595 382.626 306.946 383.845 320.287 386.299C335.833 389.15 355.451 393.669 371.881 398.13C389.076 402.798 402.765 407.388 404.622 409.911C409.768 416.911 400.877 433.284 400.877 433.284C400.877 433.284 421.897 438.738 437.115 453.231" stroke="#171717" stroke-width="3" stroke-linecap="round" stroke-linejoin="round"/>
<path d="M212.5 498.26C223.248 530.514 262.982 544.06 295.7 557.623C327.041 570.606 403.419 552.716 423.773 549.597C424.667 549.468 425.462 549.358 426.127 549.279C429.385 548.755 432.586 547.918 435.683 546.779C458.858 538.941 505.158 515.816 516.344 514.624C523.893 513.819 527.708 515.18 529.585 516.481C530.325 516.93 530.921 517.582 531.303 518.359C538.236 528.339 543.859 539.169 548.031 550.583" stroke="#171717" stroke-width="3" stroke-linecap="round" stroke-linejoin="round"/>
<path d="M200.811 723.344H370.147" stroke="#171717" stroke-width="3" stroke-linecap="round" stroke-linejoin="round"/>
<path d="M238.677 699.85L330.453 704.41" stroke="#171717" stroke-width="3" stroke-linecap="round" stroke-linejoin="round"/>
<path d="M294.771 410.379L390.599 432.342" stroke="#171717" stroke-width="3" stroke-linecap="round" stroke-linejoin="round"/>
<path d="M492.04 530.98C492.04 530.98 528.029 559.023 519.149 622.13" stroke="#171717" stroke-width="3" stroke-linecap="round" stroke-linejoin="round"/>
<path d="M441.32 252.605C447.886 250.181 472.302 241.628 474.279 246.297C476.852 252.376 453.319 269.829 437.118 266.869" stroke="#171717" stroke-width="3" stroke-linecap="round" stroke-linejoin="round"/>
<path d="M439.661 253.229C439.672 253.228 439.682 253.225 439.691 253.219C439.713 253.208 439.736 253.198 439.76 253.19C439.85 253.16 439.999 253.1 440.207 253.021" stroke="#171717" stroke-width="3" stroke-linecap="round" stroke-linejoin="round"/>
<path d="M432.668 239.989C432.668 239.986 432.669 239.983 432.671 239.982C432.673 239.98 432.675 239.979 432.678 239.979C433.323 239.313 455.445 216.665 461.892 219.879C468.428 223.157 451.601 248.626 441.32 252.6C441.316 252.603 441.311 252.606 441.306 252.607C441.301 252.609 441.295 252.609 441.29 252.609C441.042 252.709 440.833 252.788 440.654 252.848C440.585 252.878 440.535 252.888 440.525 252.898C440.423 252.948 440.317 252.988 440.207 253.017C439.999 253.106 439.85 253.156 439.76 253.186C439.738 253.197 439.715 253.207 439.691 253.215" stroke="#171717" stroke-width="3" stroke-linecap="round" stroke-linejoin="round"/>
<path d="M332.637 329.916C332.637 329.916 324.223 341.416 315.571 337.922C306.919 334.428 318.144 320.857 318.144 320.857C318.144 320.857 302.956 330.204 300.612 322.963C298.268 315.722 306.462 311.509 306.462 311.509C306.462 311.509 314.638 304.258 317.439 298.188C320.24 292.118 330.303 237.882 347.13 232.975C363.957 228.068 390.13 231.336 407.198 232.975C424.266 234.614 431.734 205.161 439.919 206.562C447.995 207.942 433.045 239.203 432.678 239.978" stroke="#171717" stroke-width="3" stroke-linecap="round" stroke-linejoin="round"/>
<path d="M423.727 275.51C423.727 275.51 406.493 263.362 396.679 267.802C386.865 272.242 386.159 328.337 386.159 328.337L374.944 327.403" stroke="#171717" stroke-width="3" stroke-linecap="round" stroke-linejoin="round"/>
<path d="M369.8 352.407C369.8 352.407 354.841 353.34 351.334 340.486" stroke="#171717" stroke-width="3" stroke-linecap="round" stroke-linejoin="round"/>
<path d="M369.799 286.031L371.667 278.789" stroke="#171717" stroke-width="3" stroke-linecap="round" stroke-linejoin="round"/>
<path d="M407.198 294.683L409.066 288.604" stroke="#171717" stroke-width="3" stroke-linecap="round" stroke-linejoin="round"/>
<path d="M769.613 514.918C768.413 521.285 763.276 525.666 758.14 524.702C753.004 523.738 749.806 517.779 751.008 511.402C752.21 505.025 757.355 500.644 762.491 501.618C767.627 502.592 770.815 508.541 769.613 514.918Z" stroke="#171717" stroke-width="3" stroke-linecap="round" stroke-linejoin="round"/>
<path d="M767.209 482.456L765.758 482.218C764.888 482.082 764.053 481.776 763.301 481.316C762.549 480.857 761.895 480.254 761.377 479.541C760.858 478.829 760.485 478.022 760.279 477.165C760.073 476.308 760.038 475.419 760.176 474.549L770.834 407.031C771.112 405.274 772.076 403.7 773.514 402.653C774.952 401.606 776.746 401.173 778.503 401.448L779.963 401.687C780.834 401.824 781.668 402.131 782.42 402.59C783.171 403.05 783.825 403.653 784.343 404.365C784.862 405.077 785.235 405.884 785.441 406.74C785.648 407.597 785.683 408.485 785.546 409.355L774.887 476.873C774.608 478.631 773.642 480.205 772.203 481.252C770.763 482.299 768.968 482.732 767.209 482.456Z" stroke="#171717" stroke-width="3" stroke-linecap="round" stroke-linejoin="round"/>
<path d="M742.862 627.921L741.402 627.693C739.645 627.412 738.072 626.446 737.027 625.006C735.982 623.566 735.552 621.771 735.83 620.014L746.488 552.499C746.625 551.629 746.932 550.795 747.392 550.044C747.852 549.294 748.455 548.641 749.167 548.123C749.88 547.606 750.687 547.234 751.543 547.029C752.399 546.823 753.287 546.789 754.157 546.927L755.617 547.155C757.373 547.432 758.948 548.396 759.995 549.834C761.042 551.272 761.475 553.067 761.2 554.824L750.531 622.339C750.394 623.209 750.088 624.044 749.629 624.796C749.169 625.548 748.566 626.202 747.854 626.72C747.142 627.239 746.334 627.612 745.477 627.818C744.621 628.024 743.732 628.059 742.862 627.921V627.921Z" stroke="#171717" stroke-width="3" stroke-linecap="round" stroke-linejoin="round"/>
<path d="M603.227 549.438C609.495 554.951 616.747 560.464 619.498 559.272C623.551 557.524 613.588 534.041 608.79 523.323C607.359 520.123 606.39 518.058 606.39 518.058L604.264 515.127" stroke="#171717" stroke-width="3" stroke-linecap="round" stroke-linejoin="round"/>
<path d="M586.638 492.299L553.52 445.175C553.52 445.175 543.914 433.155 537.735 437.208C526.59 444.519 536.961 457.174 536.961 457.174L564.685 498.12" stroke="#171717" stroke-width="3" stroke-linecap="round" stroke-linejoin="round"/>
<path d="M588.933 492.25C596.452 491.614 602.204 496.68 607.469 501.55C612.969 506.636 623.054 517.941 615.157 525.272C612.773 527.487 610.518 525.808 608.8 523.325" stroke="#171717" stroke-width="3" stroke-linecap="round" stroke-linejoin="round"/>
<path d="M529.59 516.477C540.841 509.582 552.706 503.743 565.033 499.034C572.06 496.269 579.294 494.062 586.668 492.434C587.075 492.345 587.468 492.265 587.868 492.186" stroke="#171717" stroke-width="3" stroke-linecap="round" stroke-linejoin="round"/>
<path d="M563.851 512.276C563.851 512.276 592.896 497.862 599.432 506.236C601.377 508.989 602.857 512.043 603.813 515.275C607.313 525.914 608.313 540.258 603.883 542.553" stroke="#171717" stroke-width="3" stroke-linecap="round" stroke-linejoin="round"/>
<path d="M559.717 528.269C559.717 528.269 586.995 515.733 593.531 524.107C596.551 527.962 600.345 535.541 602.064 542.564C602.637 544.808 602.939 547.112 602.964 549.428C602.904 554.504 600.764 558.199 594.878 558.09C588.178 557.971 584.12 537.657 584.12 537.657L548.045 550.58H548.035" stroke="#171717" stroke-width="3" stroke-linecap="round" stroke-linejoin="round"/>
<path d="M144.241 347.699C148.129 354.047 150.462 361.223 151.051 368.643C151.64 376.063 150.468 383.518 147.631 390.399C144.774 397.154 140.081 403.392 133.531 406.699C126.981 410.006 118.44 409.849 112.805 405.153C107.17 400.457 105.76 390.984 110.733 385.593C119.074 376.552 135.919 387.327 135.433 399.618C134.947 411.909 123.97 421.199 112.801 426.35C101.632 431.501 89.1646 434.35 79.5126 441.972C69.8606 449.594 64.2366 464.621 71.8796 474.259C79.5226 483.897 100.056 475.059 94.8416 463.921" stroke="#171717" stroke-width="3" stroke-linecap="round" stroke-linejoin="round"/>
<path d="M462.707 198.5L464.807 178.516" stroke="#171717" stroke-width="3" stroke-linecap="round" stroke-linejoin="round"/>
<path d="M483.66 213.139L524.7 173.189" stroke="#171717" stroke-width="3" stroke-linecap="round" stroke-linejoin="round"/>
<path d="M497.415 237.415C504.581 238.138 511.813 237.053 518.451 234.26" stroke="#171717" stroke-width="3" stroke-linecap="round" stroke-linejoin="round"/>
<path d="M384.058 426.735L387.852 410.387" stroke="#171717" stroke-width="3" stroke-linecap="round" stroke-linejoin="round"/>
<path d="M361.2 421.14L365.881 404.781" stroke="#171717" stroke-width="3" stroke-linecap="round" stroke-linejoin="round"/>
<path d="M336.844 414.115L340.584 398.221" stroke="#171717" stroke-width="3" stroke-linecap="round" stroke-linejoin="round"/>
<path d="M314.662 408.561L318.293 392.176" stroke="#171717" stroke-width="3" stroke-linecap="round" stroke-linejoin="round"/>
<path d="M295.319 404.78L298.124 390.289" stroke="#171717" stroke-width="3" stroke-linecap="round" stroke-linejoin="round"/>
<path d="M411.83 481.43C411.612 477.56 410.179 473.858 407.736 470.85" stroke="#171717" stroke-width="3" stroke-linecap="round" stroke-linejoin="round"/>
<path d="M349.338 460.221L357.783 453.953" stroke="#171717" stroke-width="3" stroke-linecap="round" stroke-linejoin="round"/>
<path d="M368.4 506.672C365.916 509.653 362.803 512.047 359.284 513.684" stroke="#171717" stroke-width="3" stroke-linecap="round" stroke-linejoin="round"/>
<path d="M324.923 545.236L317.911 536.121" stroke="#171717" stroke-width="3" stroke-linecap="round" stroke-linejoin="round"/>
<path d="M287.06 495.452L295.474 489.842" stroke="#171717" stroke-width="3" stroke-linecap="round" stroke-linejoin="round"/>
<path d="M288.461 450.576L280.047 437.955" stroke="#171717" stroke-width="3" stroke-linecap="round" stroke-linejoin="round"/>
<path d="M223.94 468.799L231.86 459.867" stroke="#171717" stroke-width="3" stroke-linecap="round" stroke-linejoin="round"/>
<path d="M179.186 474.317L170.842 465.137" stroke="#171717" stroke-width="3" stroke-linecap="round" stroke-linejoin="round"/>
<path d="M162.247 545.237L169.96 535.42" stroke="#171717" stroke-width="3" stroke-linecap="round" stroke-linejoin="round"/>
<path d="M155.937 594.321L144.916 587.266" stroke="#171717" stroke-width="3" stroke-linecap="round" stroke-linejoin="round"/>
<path d="M234.393 573.906L246.025 562.406" stroke="#171717" stroke-width="3" stroke-linecap="round" stroke-linejoin="round"/>
<path d="M215.556 630.048C211.77 627.864 208.595 624.761 206.324 621.025" stroke="#171717" stroke-width="3" stroke-linecap="round" stroke-linejoin="round"/>
<path d="M281.439 595.07C285.596 595.973 289.313 598.284 291.961 601.612" stroke="#171717" stroke-width="3" stroke-linecap="round" stroke-linejoin="round"/>
<path d="M346.816 597.899L353.761 583.842" stroke="#171717" stroke-width="3" stroke-linecap="round" stroke-linejoin="round"/>
<path d="M334.018 645.528C330.147 641.965 325.251 639.715 320.026 639.098" stroke="#171717" stroke-width="3" stroke-linecap="round" stroke-linejoin="round"/>
<path d="M266.725 671.451L275.139 659.531" stroke="#171717" stroke-width="3" stroke-linecap="round" stroke-linejoin="round"/>
<path d="M366.827 667.124L378.242 651.137" stroke="#171717" stroke-width="3" stroke-linecap="round" stroke-linejoin="round"/>
<path d="M411.683 619.908L399.301 613.164" stroke="#171717" stroke-width="3" stroke-linecap="round" stroke-linejoin="round"/>
<path d="M438.042 578.343L446.966 564.893" stroke="#171717" stroke-width="3" stroke-linecap="round" stroke-linejoin="round"/>
<path d="M485.5 600.631C483.431 597.693 480.486 595.485 477.086 594.32" stroke="#171717" stroke-width="3" stroke-linecap="round" stroke-linejoin="round"/>
<path d="M448.465 646.287L458.25 630.141" stroke="#171717" stroke-width="3" stroke-linecap="round" stroke-linejoin="round"/>
<path d="M193.756 380.959L186.289 371.6" stroke="#171717" stroke-width="3" stroke-linecap="round" stroke-linejoin="round"/>
<path d="M183.801 382.09C188.28 378.668 192.341 374.731 195.901 370.361" stroke="#171717" stroke-width="3" stroke-linecap="round" stroke-linejoin="round"/>
<path d="M406.962 206.099L402.287 198.152" stroke="#171717" stroke-width="3" stroke-linecap="round" stroke-linejoin="round"/>
<path d="M399.451 205.587L408.282 198.512" stroke="#171717" stroke-width="3" stroke-linecap="round" stroke-linejoin="round"/>
<path d="M320.949 231.338L313.938 222.924" stroke="#171717" stroke-width="3" stroke-linecap="round" stroke-linejoin="round"/>
<path d="M313.329 231.623C317.039 228.751 320.239 225.276 322.798 221.344" stroke="#171717" stroke-width="3" stroke-linecap="round" stroke-linejoin="round"/>
<path d="M623.165 557.8C630.476 508.732 641.481 460.286 656.088 412.875L509.024 414.013L484.9 510.5" stroke="#FAFAFA" stroke-width="3" stroke-linecap="round" stroke-linejoin="round"/>
<path d="M490.009 414.936L538.976 372.707L576.236 402.907L611.02 376.307C613.245 374.607 615.773 372.813 618.559 373.107C620.832 373.347 622.703 374.932 624.417 376.444L682.338 427.58" stroke="#FAFAFA" stroke-width="3" stroke-linecap="round" stroke-linejoin="round"/>
<path d="M600.491 580.973C635.217 581.765 669.864 584.616 704.252 589.511" stroke="#FAFAFA" stroke-width="3" stroke-linecap="round" stroke-linejoin="round"/>
<path d="M698.294 481.434L693.477 469.477" stroke="#FAFAFA" stroke-width="3" stroke-linecap="round" stroke-linejoin="round"/>
<path d="M689.176 481.05L704.588 472.609" stroke="#FAFAFA" stroke-width="3" stroke-linecap="round" stroke-linejoin="round"/>
<path d="M709.083 384.887L700.503 367.438" stroke="#FAFAFA" stroke-width="3" stroke-linecap="round" stroke-linejoin="round"/>
<path d="M696.269 381.942C702.22 377.188 708.6 372.996 715.327 369.422L714.768 370.256" stroke="#FAFAFA" stroke-width="3" stroke-linecap="round" stroke-linejoin="round"/>
<path d="M78.7479 426.084L71.0479 416.955" stroke="#171717" stroke-width="3" stroke-linecap="round" stroke-linejoin="round"/>
<path d="M69.7715 426.123L78.9005 417.723" stroke="#171717" stroke-width="3" stroke-linecap="round" stroke-linejoin="round"/>
<path d="M124.801 639.486C112.392 627.087 104.015 611.232 100.766 593.994" stroke="#171717" stroke-width="3" stroke-linecap="round" stroke-linejoin="round"/>
<g opacity="0.1">
<path d="M433.075 261.916C415.784 256.178 398.057 251.852 380.068 248.978C371.608 247.64 363.185 247.904 355.787 252.749C349.073 257.149 345.379 264.03 342.987 271.469C337.32 289.091 333.787 307.669 329.687 325.709C327.645 334.694 325.632 343.688 323.763 352.709C322.829 357.222 321.91 361.738 321.004 366.258C319.968 371.434 318.175 377.038 318.504 382.328C319.004 390.455 330.922 395.328 335.104 386.828C338.825 379.256 339.61 369.887 341.404 361.664C343.227 353.306 345.048 344.946 346.921 336.598C350.74 319.579 354.77 302.609 359.011 285.689C360.431 280.003 361.182 272.209 364.933 267.441C368.561 262.828 376.398 264.541 381.349 265.421C397.992 268.379 414.67 271.91 431.549 273.244C438.312 273.778 438.968 263.88 433.081 261.918L433.075 261.916Z" fill="#171717"/>
</g>
<g opacity="0.1">
<path d="M288.563 384.637C283.189 393.079 281.372 403.6 278.728 413.161L287.599 406.407C255.643 406.786 222.815 406.961 192.733 419.262C166.026 430.183 144.063 449.386 128.65 473.71C112.188 499.69 102.7 532.27 106.475 563.071C108.319 578.119 112.915 593.046 120.815 606.071C128.183 618.219 138.041 628.876 148.622 638.281C161.664 649.759 176.481 659.046 192.495 665.781C200.52 669.221 208.618 672.56 216.835 675.515C225.216 678.528 233.665 681.978 242.688 681.522C247.624 681.272 248.933 675.349 245.102 672.612C239.338 668.494 232.841 666.712 226.224 664.372C219.085 661.958 212.086 659.145 205.262 655.945C192.46 649.709 180.337 642.164 169.087 633.432C149.436 618.132 133.707 596.116 127.7 571.742C115.228 521.142 147.318 463.854 192.649 441.107C221.543 426.607 255.929 425.651 287.599 424.8C289.605 424.767 291.548 424.094 293.144 422.878C294.74 421.663 295.906 419.97 296.471 418.045C298.971 408.426 302.699 398.363 302.277 388.345C302.231 386.753 301.673 385.217 300.686 383.966C299.699 382.715 298.336 381.815 296.799 381.399C295.261 380.982 293.63 381.072 292.147 381.654C290.664 382.236 289.407 383.28 288.563 384.631V384.637Z" fill="#171717"/>
</g>
<g opacity="0.1">
<path d="M571.023 492.159C567.273 484.881 561.123 478.532 556.646 471.627C554.367 468.109 552.197 464.524 550.134 460.871C548.266 457.563 546.834 454.438 543.658 452.231C541.379 450.646 538.308 452.772 538.298 455.307C538.28 459.69 540.898 463.407 543.07 467.081C545.203 470.691 547.443 474.235 549.79 477.712C554.384 484.512 559.269 492.328 565.829 497.354C569.09 499.854 572.582 495.184 571.023 492.159Z" fill="#171717"/>
</g>
<g opacity="0.1">
<path d="M603.136 548.1C603.452 549.423 604.141 550.627 605.12 551.57C605.42 551.848 605.74 552.109 606.055 552.37C605.238 551.7 608.178 554.006 607.24 553.27C608.64 554.384 609.967 555.587 611.214 556.87C611.852 557.491 612.674 557.887 613.556 558.001C614.439 558.115 615.334 557.939 616.109 557.501C617.517 556.677 618.638 554.564 617.965 552.94C616.207 548.703 612.771 542.191 607.339 542.583C606.672 542.597 606.017 542.761 605.423 543.063C604.828 543.365 604.31 543.798 603.906 544.328C603.502 544.859 603.224 545.474 603.091 546.127C602.958 546.78 602.974 547.455 603.139 548.101L603.136 548.1Z" fill="#171717"/>
</g>
</g>
<defs>
<clipPath id="clip0_435_1384">
<rect width="884" height="618" fill="white" transform="translate(38 171)"/>
</clipPath>
</defs>
</svg>
